<svg width="41" height="42" viewBox="0 0 41 42" fill="none" xmlns="http://www.w3.org/2000/svg">
<rect y="0.400146" width="40.8" height="40.8" rx="5" fill="#D2AF53"/>
<circle cx="20.4" cy="20.8002" r="13.2" fill="white"/>
<path d="M25.4375 15.5575C24.1765 14.5485 22.6094 13.9992 20.9944 14C19.0906 14 17.3125 14.7334 15.9832 16.0653C14.6985 17.3541 13.9944 19.0556 14 20.8553C14.0001 22.1748 14.3874 23.4652 15.1141 24.5666L15.12 24.575C15.1288 24.5878 15.1378 24.6006 15.1469 24.6131C15.156 24.6256 15.1672 24.6419 15.1697 24.6459L15.1766 24.6584C15.2119 24.7209 15.2391 24.7972 15.215 24.8741L14.6394 26.9572C14.6164 27.0346 14.6038 27.1148 14.6019 27.1956C14.6015 27.4082 14.6854 27.6122 14.8352 27.763C14.985 27.9138 15.1884 27.999 15.401 28C15.5133 27.9963 15.624 27.972 15.7275 27.9284L17.8366 27.1672L17.8631 27.1569C17.9205 27.1328 17.9822 27.1206 18.0444 27.1209C18.1018 27.1211 18.1586 27.1317 18.2122 27.1522C18.2628 27.1719 18.7225 27.3478 19.2075 27.4834C19.6106 27.5959 20.4494 27.7647 21.1066 27.7647C22.9706 27.7647 24.7113 27.0428 26.0075 25.7316C27.2925 24.4303 28 22.7006 28 20.8591C28.0002 20.3863 27.9501 19.9149 27.8506 19.4528C27.5275 17.9334 26.6706 16.5497 25.4375 15.5575ZM18 22C17.8022 22 17.6089 21.9414 17.4445 21.8315C17.28 21.7216 17.1518 21.5654 17.0761 21.3827C17.0005 21.2 16.9807 20.9989 17.0192 20.8049C17.0578 20.6109 17.1531 20.4327 17.2929 20.2929C17.4328 20.153 17.611 20.0578 17.8049 20.0192C17.9989 19.9806 18.2 20.0004 18.3827 20.0761C18.5654 20.1518 18.7216 20.28 18.8315 20.4444C18.9414 20.6089 19 20.8022 19 21C19 21.2652 18.8947 21.5196 18.7071 21.7071C18.5196 21.8946 18.2652 22 18 22ZM21 22C20.8022 22 20.6089 21.9414 20.4444 21.8315C20.28 21.7216 20.1518 21.5654 20.0761 21.3827C20.0005 21.2 19.9806 20.9989 20.0192 20.8049C20.0578 20.6109 20.1531 20.4327 20.2929 20.2929C20.4328 20.153 20.6109 20.0578 20.8049 20.0192C20.9989 19.9806 21.2 20.0004 21.3827 20.0761C21.5654 20.1518 21.7216 20.28 21.8315 20.4444C21.9414 20.6089 22 20.8022 22 21C22 21.2652 21.8947 21.5196 21.7071 21.7071C21.5196 21.8946 21.2652 22 21 22ZM24 22C23.8022 22 23.6089 21.9414 23.4444 21.8315C23.28 21.7216 23.1518 21.5654 23.0761 21.3827C23.0004 21.2 22.9806 20.9989 23.0192 20.8049C23.0578 20.6109 23.1531 20.4327 23.2929 20.2929C23.4328 20.153 23.6109 20.0578 23.8049 20.0192C23.9989 19.9806 24.2 20.0004 24.3827 20.0761C24.5654 20.1518 24.7216 20.28 24.8315 20.4444C24.9414 20.6089 25 20.8022 25 21C25 21.2652 24.8947 21.5196 24.7071 21.7071C24.5196 21.8946 24.2652 22 24 22Z" fill="#D2AF53"/>
</svg>
