<svg width="41" height="41" viewBox="0 0 41 41" fill="none" xmlns="http://www.w3.org/2000/svg">
<rect width="40.8" height="40.8" rx="5" fill="#5395D2"/>
<circle cx="20.1998" cy="20.1999" r="13.2" fill="white"/>
<path d="M17 17C17 16.3038 17.3227 15.6361 17.897 15.1438C18.4713 14.6516 19.2503 14.375 20.0625 14.375H20.9375C21.7497 14.375 22.5287 14.6516 23.103 15.1438C23.6773 15.6361 24 16.3038 24 17C24.0322 17.5681 23.879 18.1313 23.5633 18.6047C23.2477 19.0782 22.7868 19.4362 22.25 19.625C21.7132 19.8767 21.2523 20.3541 20.9367 20.9854C20.621 21.6166 20.4678 22.3675 20.5 23.125" stroke="#5395D2" stroke-width="2" stroke-linecap="round" stroke-linejoin="round"/>
<path d="M20.5 26.625V26.6329" stroke="#5395D2" stroke-width="2" stroke-linecap="round" stroke-linejoin="round"/>
</svg>
