<svg width="18" height="36" viewBox="0 0 18 36" fill="none" xmlns="http://www.w3.org/2000/svg">
<path d="M15.5455 8.18182V27C15.5455 30.6164 12.6164 33.5455 9 33.5455C5.38364 33.5455 2.45455 30.6164 2.45455 27V6.54545C2.45455 4.28727 4.28727 2.45455 6.54545 2.45455C8.80364 2.45455 10.6364 4.28727 10.6364 6.54545V23.7273C10.6364 24.6273 9.9 25.3636 9 25.3636C8.1 25.3636 7.36364 24.6273 7.36364 23.7273V8.18182H4.90909V23.7273C4.90909 25.9855 6.74182 27.8182 9 27.8182C11.2582 27.8182 13.0909 25.9855 13.0909 23.7273V6.54545C13.0909 2.92909 10.1618 0 6.54545 0C2.92909 0 0 2.92909 0 6.54545V27C0 31.9745 4.02545 36 9 36C13.9745 36 18 31.9745 18 27V8.18182H15.5455Z" fill="#B1B1B1"/>
</svg>
