<svg width="41" height="41" viewBox="0 0 41 41" fill="none" xmlns="http://www.w3.org/2000/svg">
<rect width="40.8" height="40.8" rx="5" fill="#53BBD2"/>
<circle cx="20.1998" cy="20.1999" r="13.2" fill="white"/>
<path d="M20.5 28C24.6421 28 28 24.6421 28 20.5C28 16.3579 24.6421 13 20.5 13M20.5 28C16.3579 28 13 24.6421 13 20.5C13 16.3579 16.3579 13 20.5 13M20.5 28C22.5455 28 23.2273 24.5909 23.2273 20.5C23.2273 16.4091 22.5455 13 20.5 13M20.5 28C18.4545 28 17.7727 24.5909 17.7727 20.5C17.7727 16.4091 18.4545 13 20.5 13M13.6818 23.2273H27.3182M13.6818 17.7727H27.3182" stroke="#53BBD2" stroke-width="1.5"/>
</svg>
