<svg width="35" height="31" viewBox="0 0 35 31" fill="none" xmlns="http://www.w3.org/2000/svg">
<path d="M33.5878 13.3421L33.5762 13.3369L2.432 0.136142C2.17004 0.0240972 1.88499 -0.0198452 1.60235 0.00824507C1.31971 0.0363354 1.04829 0.135582 0.812368 0.297108C0.563111 0.464013 0.35837 0.691626 0.216564 0.959468C0.0747591 1.22731 0.000339163 1.52698 3.98171e-07 1.83151V10.2741C0.000138904 10.6904 0.14239 11.0936 0.402235 11.4142C0.662081 11.7349 1.02324 11.9528 1.42347 12.0305L18.4095 15.2402C18.4763 15.2531 18.5365 15.2894 18.5798 15.3429C18.6232 15.3964 18.6469 15.4636 18.6469 15.533C18.6469 15.6025 18.6232 15.6697 18.5798 15.7232C18.5365 15.7767 18.4763 15.813 18.4095 15.8259L1.4242 19.0356C1.02408 19.1131 0.662942 19.3307 0.402981 19.6511C0.143019 19.9714 0.00051048 20.3744 3.98171e-07 20.7905V29.2346C-0.000193269 29.5254 0.0702649 29.8117 0.205052 30.0678C0.33984 30.3239 0.534739 30.5418 0.77226 30.7019C1.05797 30.8959 1.39328 30.9996 1.73631 31C1.97478 30.9998 2.21081 30.9509 2.43054 30.8562L33.574 17.7307L33.5878 17.724C34.007 17.5399 34.3642 17.2342 34.6152 16.8448C34.8662 16.4554 35 15.9993 35 15.533C35 15.0668 34.8662 14.6107 34.6152 14.2213C34.3642 13.8319 34.007 13.5262 33.5878 13.3421Z" fill="#00ACED"/>
</svg>
