<svg width="31" height="31" viewBox="0 0 31 31" fill="none" xmlns="http://www.w3.org/2000/svg">
<path d="M15.5051 6.59898e-05C12.4455 -0.00887153 9.45207 0.890237 6.90376 2.58356C4.35545 4.27688 2.36688 6.68826 1.18983 9.51239C0.0127731 12.3365 -0.299836 15.4464 0.29158 18.4483C0.882996 21.4502 2.35184 24.2092 4.51215 26.3758C6.67245 28.5424 9.42707 30.0193 12.4272 30.6195C15.4274 31.2197 18.5382 30.9162 21.3658 29.7474C24.1933 28.5786 26.6105 26.5971 28.3113 24.0538C30.012 21.5104 30.9199 18.5196 30.9199 15.46C30.9239 13.4325 30.5282 11.424 29.7555 9.54951C28.9828 7.67498 27.8482 5.97112 26.4166 4.53533C24.985 3.09954 23.2845 1.95998 21.4122 1.18179C19.5399 0.4036 17.5327 0.00204022 15.5051 6.59898e-05V6.59898e-05ZM29.0533 15.46C29.0533 18.1396 28.2587 20.759 26.77 22.987C25.2813 25.215 23.1654 26.9515 20.6898 27.9769C18.2142 29.0023 15.4901 29.2706 12.862 28.7479C10.2339 28.2251 7.81987 26.9348 5.92513 25.04C4.03038 23.1453 2.74005 20.7312 2.21729 18.1031C1.69453 15.4751 1.96283 12.751 2.98826 10.2754C4.01368 7.79976 5.75019 5.68383 7.97817 4.19514C10.2062 2.70645 12.8256 1.91186 15.5051 1.91186C19.0983 1.91186 22.5443 3.33925 25.0851 5.88003C27.6259 8.4208 29.0533 11.8668 29.0533 15.46V15.46Z" fill="#B1B1B1"/>
<path d="M10.6881 14.0299C11.1551 14.0417 11.6149 13.913 12.008 13.6606C12.4011 13.4081 12.7093 13.0435 12.8929 12.6139C13.0764 12.1842 13.1267 11.7094 13.0373 11.2509C12.9479 10.7923 12.7229 10.3712 12.3915 10.0419C12.0601 9.71271 11.6374 9.49054 11.1783 9.4042C10.7192 9.31787 10.2447 9.37134 9.81633 9.55771C9.38794 9.74407 9.02535 10.0547 8.77552 10.4495C8.52568 10.8442 8.40009 11.3049 8.41501 11.7718C8.43759 12.3661 8.68477 12.9296 9.10666 13.3487C9.52854 13.7678 10.0937 14.0112 10.6881 14.0299V14.0299Z" fill="#B1B1B1"/>
<path d="M20.6835 14.0298C21.0047 14.0556 21.3277 14.0147 21.6323 13.9096C21.9368 13.8044 22.2163 13.6373 22.4531 13.4188C22.6899 13.2003 22.8789 12.9352 23.0081 12.6401C23.1374 12.3449 23.2041 12.0262 23.2041 11.704C23.2041 11.3818 23.1374 11.0631 23.0081 10.768C22.8789 10.4729 22.6899 10.2077 22.4531 9.9892C22.2163 9.77071 21.9368 9.60363 21.6323 9.49848C21.3277 9.39333 21.0047 9.3524 20.6835 9.37825C20.3759 9.38204 20.0721 9.44743 19.7901 9.57058C19.5081 9.69372 19.2537 9.87211 19.0418 10.0952C18.8299 10.3183 18.6649 10.5816 18.5565 10.8696C18.448 11.1575 18.3984 11.4643 18.4105 11.7718C18.4144 12.372 18.6557 12.9463 19.0815 13.3694C19.5074 13.7924 20.0833 14.0298 20.6835 14.0298V14.0298Z" fill="#B1B1B1"/>
<path d="M15.7912 22.0083C14.2185 21.9768 12.676 21.5713 11.2912 20.8252C9.90643 20.0792 8.71923 19.0141 7.82788 17.718C8.364 19.4282 9.42129 20.928 10.8518 22.0077C12.2824 23.0873 14.0146 23.6928 15.8062 23.7394C17.6107 23.7356 19.3652 23.1467 20.8065 22.061C22.2478 20.9752 23.2981 19.4514 23.7997 17.718C22.9335 19.0491 21.7455 20.1402 20.3456 20.8901C18.9457 21.6401 17.3792 22.0246 15.7912 22.0083V22.0083Z" fill="#B1B1B1"/>
</svg>
