<svg width="32" height="34" viewBox="0 0 32 34" fill="none" xmlns="http://www.w3.org/2000/svg">
<path d="M15.5474 11.2076C14.4524 11.2076 13.382 11.5442 12.4716 12.1749C11.5612 12.8055 10.8516 13.7018 10.4326 14.7505C10.0136 15.7992 9.90393 16.9531 10.1175 18.0664C10.3312 19.1797 10.8584 20.2023 11.6327 21.005C12.4069 21.8076 13.3934 22.3542 14.4673 22.5756C15.5412 22.7971 16.6544 22.6834 17.666 22.249C18.6776 21.8147 19.5422 21.0791 20.1505 20.1353C20.7589 19.1915 21.0836 18.0819 21.0836 16.9468C21.0792 15.4261 20.4945 13.9689 19.4572 12.8936C18.4199 11.8183 17.0143 11.2122 15.5474 11.2076ZM27.5 16.9468C27.4971 17.483 27.4592 18.0185 27.3865 18.5494L30.756 21.2841C30.9027 21.4097 31.0016 21.5854 31.035 21.7796C31.0683 21.9738 31.0339 22.174 30.938 22.3444L27.7505 28.0491C27.6536 28.218 27.5024 28.346 27.3234 28.4107C27.1444 28.4754 26.9492 28.4726 26.772 28.4028L22.8102 26.7528C21.9852 27.4114 21.0824 27.9579 20.1237 28.3791L19.5313 32.7394C19.4982 32.9347 19.4006 33.1121 19.2554 33.2411C19.1101 33.3701 18.9261 33.4428 18.7348 33.4468H12.3599C12.1721 33.443 11.9911 33.3733 11.8465 33.2492C11.7018 33.125 11.602 32.9536 11.5634 32.7631L10.971 28.4028C10.0097 27.9864 9.10625 27.439 8.28457 26.775L4.32273 28.425C4.14563 28.4949 3.95044 28.4978 3.77147 28.4333C3.5925 28.3687 3.44121 28.2408 3.34421 28.0721L0.156744 22.3681C0.0608001 22.1977 0.0264277 21.9975 0.0597692 21.8033C0.0931107 21.609 0.191993 21.4334 0.338746 21.3078L3.70821 18.5731C3.63634 18.0341 3.59843 17.4909 3.59472 16.9468C3.5976 16.4105 3.63552 15.8751 3.70821 15.3441L0.338746 12.6094C0.191993 12.4838 0.0931107 12.3082 0.0597692 12.114C0.0264277 11.9197 0.0608001 11.7195 0.156744 11.5491L3.34421 5.84443C3.4411 5.67555 3.59234 5.54751 3.77132 5.48282C3.9503 5.41813 4.14555 5.42094 4.32273 5.49076L8.28457 7.14076C9.10954 6.4822 10.0123 5.93566 10.971 5.51443L11.5634 1.15413C11.5965 0.958815 11.6941 0.781501 11.8394 0.652485C11.9846 0.523469 12.1686 0.450758 12.3599 0.446777H18.7348C18.9226 0.450566 19.1036 0.520232 19.2483 0.644402C19.3929 0.768572 19.4927 0.939911 19.5313 1.13045L20.1237 5.49076C21.0862 5.90682 21.9909 6.45424 22.8136 7.11852L26.772 5.46852C26.9491 5.39864 27.1443 5.39572 27.3233 5.46027C27.5022 5.52483 27.6535 5.65272 27.7505 5.82147L30.938 11.5262C31.0339 11.6966 31.0683 11.8968 31.035 12.091C31.0016 12.2852 30.9027 12.4609 30.756 12.5865L27.3865 15.3212C27.4584 15.8599 27.4963 16.4029 27.5 16.9468Z" fill="#00ACED"/>
</svg>
