<svg width="29" height="30" viewBox="0 0 29 30" fill="none" xmlns="http://www.w3.org/2000/svg">
<path d="M24 0H18.7472V1.31319H21.7583L15 8.07144L15.9286 9L22.6868 2.24176V5.25275H24V0Z" fill="#707070"/>
<path d="M20 14H25.2528V12.6868H22.2417L29 5.92856L28.0714 5L21.3132 11.7582V8.74725H20V14Z" fill="#707070"/>
<path d="M4.33712 4.1062C1.97901 4.1062 0.0673828 6.01783 0.0673828 8.37594V11.7917C0.0673828 21.6958 8.09621 29.7246 18.0003 29.7246H21.4161C23.7742 29.7246 25.6858 27.813 25.6858 25.4549V23.0946C25.6858 22.1243 25.1376 21.2372 24.2696 20.8032L20.1435 18.7402C18.749 18.043 17.0604 18.7424 16.5674 20.2214L16.0589 21.747C15.8656 22.3267 15.271 22.6719 14.6718 22.552C10.9215 21.802 7.99005 18.8705 7.23998 15.1202C7.12015 14.521 7.46523 13.9264 8.04491 13.7331L9.93833 13.102C11.2083 12.6787 11.9382 11.349 11.6136 10.0503L10.6127 6.04671C10.3276 4.90626 9.30286 4.1062 8.12731 4.1062H4.33712Z" fill="#707070"/>
</svg>
