<svg width="38" height="36" viewBox="0 0 38 36" fill="none" xmlns="http://www.w3.org/2000/svg">
<path d="M19.1069 0.757777C15.0589 0.89409 11.1791 2.4098 8.11073 5.05361C5.04236 7.69742 2.96972 11.3105 2.23647 15.2938C1.81487 18.9107 2.5981 22.5655 4.46467 25.692C4.78725 27.0712 4.67606 28.5165 4.14634 29.8301C3.45223 31.203 2.5035 32.4316 1.35065 33.4502C0.368505 34.4052 -0.0676151 34.61 0.0084608 34.8169C0.244328 35.4586 4.82897 34.5447 8.60285 33.2253C11.1638 32.3293 13.6188 31.1551 15.9239 29.7239L14.969 32.1642C27.9505 33.2203 37.378 23.8308 37.0385 15.4C36.7267 7.66654 28.1867 0.496604 19.1069 0.757777ZM10.8065 17.8888C10.4659 17.8888 10.133 17.7879 9.84983 17.5987C9.56667 17.4095 9.34603 17.1406 9.2157 16.8259C9.08538 16.5113 9.05125 16.165 9.11769 15.831C9.18413 15.497 9.3481 15.1902 9.58892 14.9494C9.82973 14.7086 10.1365 14.5446 10.4706 14.4782C10.8046 14.4117 11.1508 14.4458 11.4655 14.5762C11.7801 14.7065 12.049 14.9271 12.2382 15.2103C12.4274 15.4935 12.5284 15.8264 12.5284 16.1669C12.5284 16.6236 12.3469 17.0616 12.024 17.3845C11.7011 17.7074 11.2631 17.8888 10.8065 17.8888ZM19.56 17.8888C19.2194 17.8888 18.8865 17.7879 18.6033 17.5987C18.3202 17.4095 18.0995 17.1406 17.9692 16.8259C17.8389 16.5113 17.8047 16.165 17.8712 15.831C17.9376 15.497 18.1016 15.1902 18.3424 14.9494C18.5832 14.7086 18.89 14.5446 19.2241 14.4782C19.5581 14.4117 19.9043 14.4458 20.219 14.5762C20.5336 14.7065 20.8025 14.9271 20.9917 15.2103C21.1809 15.4935 21.2819 15.8264 21.2819 16.1669C21.2819 16.3931 21.2374 16.617 21.1508 16.8259C21.0643 17.0348 20.9374 17.2246 20.7775 17.3845C20.6176 17.5444 20.4279 17.6713 20.219 17.7578C20.0101 17.8443 19.7861 17.8888 19.56 17.8888ZM28.3135 17.8888C27.9729 17.8888 27.64 17.7879 27.3568 17.5987C27.0737 17.4095 26.853 17.1406 26.7227 16.8259C26.5924 16.5113 26.5582 16.165 26.6247 15.831C26.6911 15.497 26.8551 15.1902 27.0959 14.9494C27.3367 14.7086 27.6435 14.5446 27.9776 14.4782C28.3116 14.4117 28.6578 14.4458 28.9725 14.5762C29.2871 14.7065 29.556 14.9271 29.7452 15.2103C29.9344 15.4935 30.0354 15.8264 30.0354 16.1669C30.0354 16.6236 29.8539 17.0616 29.531 17.3845C29.2081 17.7074 28.7701 17.8888 28.3135 17.8888Z" fill="#707070"/>
</svg>
