<svg width="41" height="42" viewBox="0 0 41 42" fill="none" xmlns="http://www.w3.org/2000/svg">
<rect y="0.800049" width="40.8" height="40.8" rx="5" fill="#EE7A7A"/>
<path d="M20.4 8.00006C13.1216 8.00006 7.20001 13.9217 7.20001 21.2001C7.20001 28.4785 13.1216 34.4001 20.4 34.4001C27.6784 34.4001 33.6 28.4785 33.6 21.2001C33.6 13.9217 27.6784 8.00006 20.4 8.00006ZM20.4 29.3231C18.9734 29.3231 17.8616 28.6727 17.8616 27.2924H22.9385C22.9194 28.6485 21.8146 29.3231 20.4 29.3231ZM27.5077 26.277H13.2923V24.5001L15.0692 22.2154V20.1656C15.0692 17.6012 16.0732 15.3838 18.6231 14.8177L18.8769 13.077H21.9231L22.1769 14.8177C24.7154 15.3838 25.7308 17.61 25.7308 20.1656V22.2154L27.5077 24.5001V26.277Z" fill="white"/>
</svg>
