<svg width="16" height="16" viewBox="0 0 16 16" fill="none" xmlns="http://www.w3.org/2000/svg">
<path d="M15.12 11.0044C14.0267 11.0044 12.9689 10.8267 11.9822 10.5067C11.6711 10.4 11.3244 10.48 11.0844 10.72L9.68889 12.4711C7.17333 11.2711 4.81778 9.00444 3.56444 6.4L5.29778 4.92444C5.53778 4.67556 5.60889 4.32889 5.51111 4.01778C5.18222 3.03111 5.01333 1.97333 5.01333 0.88C5.01333 0.4 4.61333 0 4.13333 0H1.05778C0.577778 0 0 0.213333 0 0.88C0 9.13778 6.87111 16 15.12 16C15.7511 16 16 15.44 16 14.9511V11.8844C16 11.4044 15.6 11.0044 15.12 11.0044Z" fill="#00ACED"/>
<path d="M14.6251 1.39003L9.72221 6.29289L9.70711 6.27779L14.61 1.37492L15.4635 0.521369H14.2564H12.4145V0.5H15.5V3.58547H15.4786V1.74359V0.536483L14.6251 1.39003Z" fill="#00ACED" stroke="black"/>
</svg>
