<svg width="41" height="41" viewBox="0 0 41 41" fill="none" xmlns="http://www.w3.org/2000/svg">
<rect width="40.8" height="40.8" rx="5" fill="#42D151"/>
<circle cx="20.13" cy="20.13" r="13.13" fill="white"/>
<path d="M25.9994 23.2011V25.362C25.9995 25.5167 25.9408 25.6657 25.8354 25.7789C25.7299 25.8921 25.5854 25.9611 25.4311 25.9719C25.164 25.9902 24.9459 26 24.7772 26C19.3771 26 15 21.6226 15 16.2222C15 16.0536 15.0092 15.8354 15.0281 15.5683C15.0389 15.414 15.1079 15.2695 15.2211 15.164C15.3343 15.0585 15.4833 14.9999 15.638 15H17.7987C17.8745 14.9999 17.9477 15.028 18.0039 15.0788C18.0601 15.1297 18.0955 15.1996 18.103 15.275C18.1171 15.4156 18.1299 15.5274 18.1422 15.6123C18.2636 16.4599 18.5125 17.2842 18.8803 18.0574C18.9384 18.1796 18.9005 18.3257 18.7905 18.4039L17.4718 19.3462C18.2781 21.2251 19.7753 22.7223 21.654 23.5287L22.5951 22.2123C22.6335 22.1586 22.6897 22.12 22.7537 22.1033C22.8176 22.0867 22.8854 22.0931 22.9452 22.1213C23.7183 22.4885 24.5423 22.7367 25.3895 22.8577C25.4745 22.8699 25.5863 22.8833 25.7256 22.8968C25.8009 22.9045 25.8707 22.9399 25.9214 22.9961C25.9721 23.0524 26.0001 23.1254 26 23.2011H25.9994Z" fill="#42D151"/>
</svg>
