<svg width="41" height="41" viewBox="0 0 41 41" fill="none" xmlns="http://www.w3.org/2000/svg">
<rect width="40.8" height="40.8" rx="5" fill="#EE7AAE"/>
<path d="M20.3998 7.77142C12.8869 7.77142 6.7998 13.4237 6.7998 20.4C6.7998 27.3763 12.8869 33.0286 20.3998 33.0286C27.9127 33.0286 33.9998 27.3763 33.9998 20.4C33.9998 13.4237 27.9127 7.77142 20.3998 7.77142ZM20.3998 12.6599C23.065 12.6599 25.2256 14.6662 25.2256 17.141C25.2256 19.6158 23.065 21.6221 20.3998 21.6221C17.7346 21.6221 15.574 19.6158 15.574 17.141C15.574 14.6662 17.7346 12.6599 20.3998 12.6599ZM20.3998 30.177C17.1808 30.177 14.2963 28.8224 12.3659 26.7041C13.3969 24.9015 15.415 23.659 17.7675 23.659C17.8992 23.659 18.0308 23.6793 18.1569 23.715C18.8698 23.9289 19.6156 24.0664 20.3998 24.0664C21.184 24.0664 21.9353 23.9289 22.6427 23.715C22.7688 23.6793 22.9004 23.659 23.0321 23.659C25.3846 23.659 27.4027 24.9015 28.4337 26.7041C26.5034 28.8224 23.6188 30.177 20.3998 30.177Z" fill="white"/>
</svg>
