<svg width="18" height="11" viewBox="0 0 18 11" fill="none" xmlns="http://www.w3.org/2000/svg">
<path d="M12.6298 0.497606L7.27246 6.21326L8.23681 7.24211L13.5942 1.52646L12.6298 0.497606Z" fill="#00ACED"/>
<path d="M4.81846 10.5862C4.63802 10.5862 4.46387 10.5101 4.33588 10.3736L0 5.74771L0.964113 4.71912L4.81846 8.83125L5.53919 8.06232L6.5033 9.09091L5.3 10.3747C5.17201 10.5101 4.99891 10.5862 4.81846 10.5862Z" fill="#00ACED"/>
<path d="M8.9939 11C8.81506 11 8.64246 10.9249 8.51561 10.7902L4.21826 6.22753L5.17381 5.21299L8.9939 9.26895L16.737 1.04773L17.6926 2.06227L9.47115 10.7913C9.34534 10.9249 9.17378 11 8.9939 11Z" fill="#00ACED"/>
</svg>
