<svg width="41" height="41" viewBox="0 0 41 41" fill="none" xmlns="http://www.w3.org/2000/svg">
<rect width="40.8" height="40.8" rx="5" fill="#FF8B36"/>
<circle cx="20.13" cy="20.13" r="13.13" fill="white"/>
<path d="M25.1627 14.6434C23.9305 13.5469 22.3205 13 20.3272 13C18.175 13 16.4172 13.7055 15.0508 15.1164C13.6818 16.5301 13 18.2691 13 20.3418C13 22.3734 13.6407 23.9922 14.9221 25.1953C16.2036 26.3984 17.8656 27 19.9055 27C21.395 27 22.6107 26.7922 23.5554 26.3766V24.7469C22.5204 25.2363 21.3813 25.4797 20.1355 25.4797C18.5036 25.4797 17.2249 25.0258 16.2967 24.1125C15.3712 23.202 14.9057 21.9551 14.9057 20.3746C14.9057 18.7422 15.4287 17.3559 16.4774 16.2211C17.5261 15.0863 18.8404 14.5176 20.423 14.5176C21.9016 14.5176 23.0516 14.9441 23.8757 15.7945C24.6999 16.6449 25.1134 17.7359 25.1134 19.0676C25.1134 20.041 24.971 20.8285 24.6807 21.4328C24.3932 22.0371 24.0291 22.3379 23.5855 22.3379C23.1666 22.3379 22.953 21.9387 22.953 21.143C22.953 20.3965 23.0762 18.8133 23.3281 16.3879H21.4607L21.3786 17.2328H21.3457C21.1349 16.5656 20.6174 16.2348 19.7932 16.2348C18.8814 16.2348 18.1011 16.6422 17.4522 17.4598C16.806 18.2773 16.4801 19.3383 16.4801 20.6398C16.4801 21.6488 16.7129 22.4363 17.1811 23.0051C17.6493 23.5738 18.2626 23.8582 19.0266 23.8582C20.0451 23.8582 20.7461 23.3141 21.1349 22.2285H21.1842C21.2116 22.7125 21.3978 23.1062 21.74 23.407C22.0823 23.7105 22.5286 23.8609 23.0762 23.8609C24.1879 23.8609 25.1216 23.4152 25.8718 22.5238C26.6248 21.6324 26.9999 20.4512 26.9999 18.9773C27.0081 17.1836 26.3921 15.7371 25.1627 14.6434ZM20.7762 21.493C20.4778 22.0672 20.067 22.357 19.5468 22.357C19.21 22.357 18.9335 22.2039 18.7199 21.9004C18.5063 21.5969 18.3995 21.1703 18.3995 20.6262C18.3995 19.8578 18.5556 19.1824 18.8678 18.5973C19.1799 18.0148 19.5851 17.7223 20.0835 17.7223C20.4257 17.7223 20.7023 17.8535 20.9104 18.116C21.1185 18.3785 21.2225 18.7367 21.2225 19.1934C21.2253 20.1504 21.0747 20.9188 20.7762 21.493Z" fill="#FF8B36"/>
</svg>
