<svg width="41" height="41" viewBox="0 0 41 41" fill="none" xmlns="http://www.w3.org/2000/svg">
<rect width="40.8" height="40.8" rx="5" fill="#7A9AEE"/>
<path d="M20.63 8C13.6529 8 8 13.6529 8 20.63C8 27.6071 13.6529 33.26 20.63 33.26C27.6071 33.26 33.26 27.6071 33.26 20.63C33.26 13.6529 27.6071 8 20.63 8ZM20.63 12.889C23.1051 12.889 25.1116 14.8956 25.1116 17.3706C25.1116 19.8457 23.1051 21.8523 20.63 21.8523C18.1549 21.8523 16.1484 19.8457 16.1484 17.3706C16.1484 14.8956 18.1549 12.889 20.63 12.889ZM20.63 30.4081C17.6406 30.4081 14.9618 29.0534 13.1691 26.9348C14.1266 25.132 16.0007 23.8894 18.1855 23.8894C18.3077 23.8894 18.4299 23.9097 18.5471 23.9454C19.2091 24.1593 19.9017 24.2968 20.63 24.2968C21.3583 24.2968 22.056 24.1593 22.7129 23.9454C22.8301 23.9097 22.9523 23.8894 23.0745 23.8894C25.2593 23.8894 27.1334 25.132 28.0909 26.9348C26.2982 29.0534 23.6194 30.4081 20.63 30.4081Z" fill="white"/>
</svg>
