<svg width="24" height="24" viewBox="0 0 24 24" fill="none" xmlns="http://www.w3.org/2000/svg">
<g clip-path="url(#clip0_1_2351)">
<path d="M11.398 0.00195461C9.47297 0.0279546 5.33097 0.343955 3.01397 2.46695C1.29397 4.17695 0.692973 6.69795 0.622973 9.81995C0.562973 12.93 0.492973 18.77 6.12297 20.361V22.781C6.12297 22.781 6.08497 23.751 6.72497 23.951C7.51497 24.201 7.96497 23.452 8.71497 22.652L10.115 21.072C13.965 21.392 16.915 20.653 17.255 20.543C18.035 20.293 22.436 19.732 23.156 13.891C23.896 7.85995 22.796 4.05995 20.816 2.33995L20.806 2.33795C20.206 1.78795 17.806 0.0379546 12.436 0.0179546C12.436 0.0179546 12.04 -0.00704539 11.398 0.00195461ZM11.465 1.69895C12.01 1.69595 12.345 1.71895 12.345 1.71895C16.885 1.72895 19.056 3.09895 19.566 3.55895C21.236 4.98795 22.094 8.41496 21.466 13.451C20.866 18.331 17.296 18.641 16.636 18.851C16.356 18.941 13.756 19.581 10.484 19.371C10.484 19.371 8.04497 22.312 7.28497 23.072C7.16497 23.202 7.02497 23.242 6.93497 23.222C6.80497 23.192 6.76497 23.032 6.77497 22.812L6.79497 18.793C2.02397 17.473 2.30397 12.491 2.35397 9.89095C2.41397 7.29095 2.90397 5.15895 4.35397 3.71895C6.31097 1.94895 9.82897 1.70895 11.464 1.69895H11.465ZM11.825 4.29895C11.7856 4.29882 11.7466 4.30646 11.7102 4.32143C11.6739 4.33639 11.6408 4.3584 11.6129 4.38618C11.585 4.41395 11.5629 4.44696 11.5478 4.4833C11.5327 4.51964 11.525 4.55861 11.525 4.59795C11.525 4.67752 11.5566 4.75383 11.6128 4.81009C11.6691 4.86635 11.7454 4.89795 11.825 4.89795C12.5684 4.88377 13.3073 5.01697 13.999 5.28988C14.6907 5.56278 15.3215 5.96997 15.855 6.48795C16.945 7.54795 17.476 8.96795 17.496 10.828C17.496 10.8674 17.5037 10.9064 17.5188 10.9428C17.5339 10.9792 17.556 11.0122 17.5838 11.0401C17.6117 11.0679 17.6448 11.09 17.6812 11.1051C17.7176 11.1202 17.7566 11.128 17.796 11.128V11.119C17.8755 11.119 17.9518 11.0873 18.0081 11.0311C18.0644 10.9748 18.096 10.8985 18.096 10.819C18.1331 9.94424 17.9917 9.07113 17.6805 8.25279C17.3694 7.43446 16.8949 6.68802 16.286 6.05895C15.096 4.89895 13.594 4.29895 11.824 4.29895H11.825ZM7.87097 4.98895C7.65831 4.95865 7.44164 5.00093 7.25597 5.10895H7.24397C6.83397 5.34895 6.45597 5.64895 6.09597 6.04895C5.82597 6.36895 5.67497 6.68795 5.63497 6.99795C5.61144 7.17977 5.62852 7.36453 5.68497 7.53895L5.70497 7.54895C6.0132 8.4551 6.41539 9.32651 6.90497 10.149C7.53959 11.3008 8.31928 12.3665 9.22497 13.32L9.25497 13.36L9.29497 13.39L9.32497 13.42L9.35497 13.45C10.3122 14.3579 11.3807 15.1409 12.535 15.78C13.855 16.5 14.657 16.84 15.137 16.98V16.99C15.277 17.03 15.405 17.05 15.535 17.05C15.9447 17.0201 16.3326 16.8539 16.637 16.578C17.027 16.228 17.337 15.84 17.567 15.43V15.42C17.797 14.99 17.717 14.579 17.387 14.299C16.7219 13.7172 16.0019 13.2014 15.237 12.759C14.727 12.479 14.207 12.649 13.997 12.929L13.547 13.498C13.317 13.778 12.897 13.738 12.897 13.738L12.885 13.748C9.76497 12.948 8.93497 9.78895 8.93497 9.78895C8.93497 9.78895 8.89497 9.35895 9.18497 9.13895L9.74497 8.68895C10.015 8.46895 10.205 7.94895 9.91497 7.43895C9.47312 6.67369 8.95732 5.95358 8.37497 5.28895C8.2483 5.13185 8.06947 5.0254 7.87097 4.98895ZM12.344 5.87895C12.2644 5.87922 12.1882 5.91108 12.1321 5.96753C12.0761 6.02398 12.0447 6.10039 12.045 6.17995C12.0452 6.25952 12.0771 6.33572 12.1335 6.39179C12.19 6.44787 12.2664 6.47922 12.346 6.47895C13.3467 6.49633 14.2997 6.90989 14.996 7.62895C15.3101 7.97547 15.5516 8.38142 15.7062 8.82284C15.8607 9.26425 15.9253 9.73217 15.896 10.199C15.8962 10.2783 15.928 10.3544 15.9842 10.4104C16.0404 10.4665 16.1166 10.498 16.196 10.498L16.206 10.51C16.2455 10.51 16.2845 10.5022 16.321 10.487C16.3575 10.4719 16.3906 10.4497 16.4185 10.4217C16.4463 10.3938 16.4684 10.3606 16.4834 10.3241C16.4984 10.2876 16.5061 10.2484 16.506 10.209C16.536 9.01895 16.166 8.01895 15.436 7.21895C14.706 6.41895 13.686 5.96896 12.386 5.87895C12.372 5.87797 12.358 5.87797 12.344 5.87895ZM12.834 7.49795C12.7939 7.49677 12.7539 7.5035 12.7164 7.51777C12.6789 7.53203 12.6445 7.55354 12.6153 7.58107C12.5861 7.6086 12.5626 7.64162 12.5462 7.67823C12.5297 7.71484 12.5207 7.75434 12.5195 7.79445C12.5183 7.83457 12.525 7.87453 12.5393 7.91205C12.5535 7.94957 12.5751 7.98391 12.6026 8.01311C12.6301 8.04232 12.6631 8.06581 12.6997 8.08226C12.7364 8.0987 12.7759 8.10777 12.816 8.10895C13.806 8.15895 14.286 8.65895 14.346 9.68895C14.3486 9.76677 14.3813 9.84053 14.4373 9.89465C14.4933 9.94877 14.5681 9.979 14.646 9.97895H14.656C14.6963 9.9777 14.7359 9.96834 14.7725 9.95144C14.8091 9.93453 14.8419 9.91042 14.8689 9.88056C14.896 9.85069 14.9168 9.81567 14.93 9.7776C14.9433 9.73952 14.9487 9.69917 14.946 9.65895C14.876 8.31895 14.146 7.56796 12.846 7.49795C12.842 7.49788 12.838 7.49788 12.834 7.49795Z" fill="#686565"/>
</g>
<defs>
<clipPath id="clip0_1_2351">
<rect width="24" height="24" fill="white"/>
</clipPath>
</defs>
</svg>
