<svg width="24" height="22" viewBox="0 0 24 22" fill="none" xmlns="http://www.w3.org/2000/svg">
<path d="M12.0053 0.00434928C9.46184 0.0899976 7.02405 1.04235 5.09614 2.70351C3.16822 4.36466 1.86593 6.63484 1.40522 9.13765C1.14032 11.4102 1.63244 13.7066 2.80524 15.671C3.00793 16.5376 2.93807 17.4457 2.60523 18.2711C2.1691 19.1337 1.573 19.9056 0.848639 20.5457C0.231539 21.1457 -0.0424839 21.2744 0.00531609 21.4044C0.153516 21.8076 3.03414 21.2334 5.40534 20.4044C7.01447 19.8414 8.557 19.1036 10.0053 18.2044L9.40534 19.7376C17.5618 20.4012 23.4853 14.5016 23.272 9.20436C23.0761 4.34526 17.7103 -0.159751 12.0053 0.00434928ZM6.78992 10.7681C6.57594 10.7681 6.36677 10.7047 6.18885 10.5858C6.01093 10.467 5.8723 10.298 5.79041 10.1003C5.70853 9.90261 5.68708 9.68504 5.72883 9.47517C5.77057 9.26531 5.8736 9.07253 6.02491 8.92122C6.17622 8.76991 6.369 8.66688 6.57886 8.62514C6.78873 8.58339 7.00629 8.60484 7.20399 8.68672C7.40168 8.76861 7.57064 8.90724 7.68952 9.08516C7.8084 9.26308 7.87183 9.47225 7.87183 9.68623C7.87183 9.97317 7.75783 10.2484 7.55494 10.4512C7.35204 10.6541 7.07686 10.7681 6.78992 10.7681ZM12.2899 10.7681C12.0759 10.7681 11.8668 10.7047 11.6888 10.5858C11.5109 10.467 11.3723 10.298 11.2904 10.1003C11.2085 9.90261 11.1871 9.68504 11.2288 9.47517C11.2706 9.26531 11.3736 9.07253 11.5249 8.92122C11.6762 8.76991 11.869 8.66688 12.0789 8.62514C12.2887 8.58339 12.5063 8.60484 12.704 8.68672C12.9017 8.76861 13.0706 8.90724 13.1895 9.08516C13.3084 9.26308 13.3718 9.47225 13.3718 9.68623C13.3718 9.82831 13.3439 9.96904 13.2895 10.1003C13.2351 10.2316 13.1554 10.3508 13.0549 10.4512C12.9545 10.5517 12.8352 10.6314 12.704 10.6858C12.5727 10.7402 12.432 10.7681 12.2899 10.7681ZM17.7899 10.7681C17.5759 10.7681 17.3668 10.7047 17.1888 10.5858C17.0109 10.467 16.8723 10.298 16.7904 10.1003C16.7085 9.90261 16.6871 9.68504 16.7288 9.47517C16.7706 9.26531 16.8736 9.07253 17.0249 8.92122C17.1762 8.76991 17.369 8.66688 17.5789 8.62514C17.7887 8.58339 18.0063 8.60484 18.204 8.68672C18.4017 8.76861 18.5706 8.90724 18.6895 9.08516C18.8084 9.26308 18.8718 9.47225 18.8718 9.68623C18.8718 9.97317 18.7578 10.2484 18.5549 10.4512C18.352 10.6541 18.0769 10.7681 17.7899 10.7681Z" fill="none" stroke="#686565"/>
</svg>
